<?xml version="1.0" encoding="UTF-8" standalone="no"?>
<!-- Created with Inkscape (http://www.inkscape.org/) -->

<svg
     xmlns="http://www.w3.org/2000/svg"
     version="1.1"
     width="514.8988"
     height="527.68097"
     id="svg5141">
    <g
         transform="translate(-80.27877,-223.368)"
         id="layer1"
         style="display:inline">
        <path
             d="m 84.285714,506.6479 c 0,0 -1.428571,-37.85715 1.428572,-43.57143 C 88.571429,457.36218 90,452.36218 90,447.36218 c 0,-5 -5,-4.28571 10,-33.57143 15,-29.28571 25,-62.85714 31.42857,-72.85714 6.42857,-10 27.85714,-37.85714 34.28572,-42.85714 6.42857,-5 45.71428,-23.57143 53.57142,-27.14286 7.85715,-3.57143 68.57143,-40 71.42858,-43.57143 2.85714,-3.57143 3.49264,-1.80986 4.75533,1.09433 1.26269,2.90419 81.69609,1.76777 87.88327,2.02031 6.18719,0.25253 24.36993,-0.37881 30.68339,2.77792 6.31345,3.15672 18.18274,6.43972 22.22335,10.6066 4.04061,4.16688 53.41182,47.47717 56.94735,49.24493 3.53553,1.76777 13.63706,9.47018 17.17259,14.26841 3.53554,4.79822 19.95052,30.68338 23.10724,34.97653 3.15673,4.29315 7.19734,10.85914 10.85914,14.89975 3.66181,4.04061 10.48034,10.98541 14.39468,21.46574 3.91434,10.48034 2.90419,10.35407 5.42957,14.26841 2.52538,3.91434 11.11168,12.6269 12.37437,15.53109 1.26269,2.90419 9.21764,19.69798 10.48033,25.38009 1.26269,5.6821 5.68211,15.53109 6.06091,27.90546 0.37881,12.37437 -0.50507,85.48416 -1.01015,88.51462 -0.50507,3.03045 -0.88388,1.01015 -1.26269,7.44987 -0.37881,6.43972 -0.12627,16.41498 -0.88388,19.06663 -0.75762,2.65165 -7.82868,18.18275 -7.95495,19.57171 -0.12627,1.38896 -0.50508,6.9448 -2.14658,9.97525 -1.6415,3.03046 -17.42513,45.96194 -19.1929,50.12882 -1.76776,4.16688 -11.86929,21.71828 -13.38452,23.86486 -1.51523,2.14657 -11.74302,14.14213 -13.8896,15.9099 -2.14657,1.76777 -45.96194,26.39024 -46.84582,27.02158 -0.88388,0.63135 -8.5863,7.57614 -10.48033,8.71257 -1.89404,1.13642 -12.50064,4.79822 -16.28871,6.69226 -3.78807,1.89403 -11.99556,5.93464 -14.26841,6.43972 -2.27284,0.50508 -34.72399,-1.38896 -38.63833,0.50508 -3.91434,1.89403 -12.37437,2.0203 -15.15229,2.0203 -2.77792,0 -60.48288,-0.88388 -64.52349,0.50508 -4.04061,1.38896 -74.75129,0.75761 -78.16056,0.50507 -3.40926,-0.25253 -27.65292,-5.55584 -32.82995,-7.3236 -5.17704,-1.76777 -16.92006,-9.09138 -20.32932,-10.10153 -3.40927,-1.01015 -16.54125,-6.81853 -20.70813,-8.71256 -4.16688,-1.89404 -36.49176,-25.75889 -40.0273,-33.33504 -3.53553,-7.57614 -11.49048,-21.71828 -13.51079,-23.86485 -2.0203,-2.14658 -10.10152,-12.87945 -10.85914,-15.27856 -0.75761,-2.39911 -0.75761,-8.83883 -2.27284,-11.23795 -1.51523,-2.39911 -13.63706,-30.1783 -14.015867,-33.71384 -0.378807,-3.53553 -2.272843,-15.65736 -2.525381,-19.82424 -0.252538,-4.16688 -9.343911,-43.6891 -9.596449,-46.21448 -0.252539,-2.52538 0.505076,-24.24366 1.641497,-26.5165 1.136422,-2.27285 0.316784,-5.91402 0.316784,-5.91402 z"
             id="path5192"
             style="fill:#ffffff;stroke:none" />
        <path
             d="m 84.285714,506.6479 c 0,0 -1.428571,-37.85715 1.428572,-43.57143 C 88.571429,457.36218 90,452.36218 90,447.36218 c 0,-5 -5,-4.28571 10,-33.57143 15,-29.28571 25,-62.85714 31.42857,-72.85714 6.42857,-10 27.85714,-37.85714 34.28572,-42.85714 6.42857,-5 45.71428,-23.57143 53.57142,-27.14286 7.85715,-3.57143 68.57143,-40 71.42858,-43.57143 2.85714,-3.57143 3.49264,-1.80986 4.75533,1.09433 1.26269,2.90419 81.69609,1.76777 87.88327,2.02031 6.18719,0.25253 24.36993,-0.37881 30.68339,2.77792 6.31345,3.15672 18.18274,6.43972 22.22335,10.6066 4.04061,4.16688 53.41182,47.47717 56.94735,49.24493 3.53553,1.76777 13.63706,9.47018 17.17259,14.26841 3.53554,4.79822 19.95052,30.68338 23.10724,34.97653 3.15673,4.29315 7.19734,10.85914 10.85914,14.89975 3.66181,4.04061 10.48034,10.98541 14.39468,21.46574 3.91434,10.48034 2.90419,10.35407 5.42957,14.26841 2.52538,3.91434 11.11168,12.6269 12.37437,15.53109 1.26269,2.90419 9.21764,19.69798 10.48033,25.38009 1.26269,5.6821 5.68211,15.53109 6.06091,27.90546 0.37881,12.37437 -0.50507,85.48416 -1.01015,88.51462 -0.50507,3.03045 -0.88388,1.01015 -1.26269,7.44987 -0.37881,6.43972 -0.12627,16.41498 -0.88388,19.06663 -0.75762,2.65165 -7.82868,18.18275 -7.95495,19.57171 -0.12627,1.38896 -0.50508,6.9448 -2.14658,9.97525 -1.6415,3.03046 -17.42513,45.96194 -19.1929,50.12882 -1.76776,4.16688 -11.86929,21.71828 -13.38452,23.86486 -1.51523,2.14657 -11.74302,14.14213 -13.8896,15.9099 -2.14657,1.76777 -45.96194,26.39024 -46.84582,27.02158 -0.88388,0.63135 -8.5863,7.57614 -10.48033,8.71257 -1.89404,1.13642 -12.50064,4.79822 -16.28871,6.69226 -3.78807,1.89403 -11.99556,5.93464 -14.26841,6.43972 -2.27284,0.50508 -34.72399,-1.38896 -38.63833,0.50508 -3.91434,1.89403 -12.37437,2.0203 -15.15229,2.0203 -2.77792,0 -60.48288,-0.88388 -64.52349,0.50508 -4.04061,1.38896 -74.75129,0.75761 -78.16056,0.50507 -3.40926,-0.25253 -27.65292,-5.55584 -32.82995,-7.3236 -5.17704,-1.76777 -16.92006,-9.09138 -20.32932,-10.10153 -3.40927,-1.01015 -16.54125,-6.81853 -20.70813,-8.71256 -4.16688,-1.89404 -36.49176,-25.75889 -40.0273,-33.33504 -3.53553,-7.57614 -11.49048,-21.71828 -13.51079,-23.86485 -2.0203,-2.14658 -10.10152,-12.87945 -10.85914,-15.27856 -0.75761,-2.39911 -0.75761,-8.83883 -2.27284,-11.23795 -1.51523,-2.39911 -13.63706,-30.1783 -14.015867,-33.71384 -0.378807,-3.53553 -2.272843,-15.65736 -2.525381,-19.82424 -0.252538,-4.16688 -9.343911,-43.6891 -9.596449,-46.21448 -0.252539,-2.52538 0.505076,-24.24366 1.641497,-26.5165 1.136422,-2.27285 0.316784,-5.91402 0.316784,-5.91402 z"
             id="path5179"
             style="fill:none;stroke:#000000;stroke-width:4;stroke-linecap:butt;stroke-linejoin:miter;stroke-miterlimit:4;stroke-opacity:1;stroke-dasharray:none" />
        <path
             d="m 292.9375,227.84375 c -10.7212,9.39173 -23.96995,15.71029 -35.88836,23.54638 -18.58482,11.42685 -37.4079,22.31706 -57.41095,31.07682 -11.58482,6.15954 -24.40656,10.73332 -34.73194,19.0018 -12.29717,13.86987 -24.67727,28.68102 -34.05493,44.71536 -11.06964,26.09119 -20.38071,53.05833 -33.78882,78.09714 -3.201688,7.29779 -7.498365,15.09562 -5.0625,23.15625 0.657224,9.15042 -6.389865,16.20083 -5.760476,25.30983 -0.494038,9.56545 -0.372489,19.1513 -0.08327,28.72142 12.739398,1.50081 25.672706,1.50906 37.906246,5.8125 8.50399,1.27298 15.27956,7.49413 23.46875,9.25 34.69615,1.24716 69.20766,4.97372 103.137,12.41402 17.60839,2.97488 35.06169,8.20003 52.86293,9.25653 16.14701,-0.82205 32.20836,0.58683 48.09382,3.39195 11.52963,0.37158 20.40619,10.5964 32.40621,8.52199 14.44654,-1.51622 28.62214,-6.69277 42.93754,-9.77199 29.09118,-7.69892 58.57496,-14.50562 87.34375,-23.09375 9.08878,-5.82714 20.25449,-7.01869 29.71875,-11.9375 3.84058,-3.75112 7.91549,-7.02543 13.15625,-8.40625 9.88526,-4.18499 18.64232,-10.92543 27.4375,-16.65625 -1.07139,-4.404 4.14621,-4.78817 6.5625,-6.78125 0.9985,-13.41708 -1.82358,-26.4721 -6.09375,-39.09375 -3.49318,-9.74665 -7.04376,-19.92346 -12.85843,-28.51236 -5.58438,-6.35711 -12.14434,-12.82607 -13.64157,-21.64389 -2.99116,-12.01625 -11.73184,-20.96797 -19.375,-30.1875 -11.60493,-15.49986 -20.91665,-32.87297 -32.875,-48.1875 -8.5928,-8.59737 -19.77835,-13.86876 -28.40625,-22.59375 -15.48652,-12.98688 -30.42449,-26.8578 -45.71875,-39.90625 -7.50518,-3.64355 -15.36402,-7.09142 -23.25,-9.53125 -24.9453,-2.73451 -50.32505,-0.65662 -75.43737,-1.37575 -12.85399,-0.60813 -26.09861,0.67865 -38.71888,-1.968 -1.14262,-0.41547 -1.35083,-1.88675 -1.875,-2.625 z"
             id="path5187"
             style="fill:#ff0000;stroke:none" />
        <path
             d="m 206.82873,427.45656 c -2.65165,2.27285 -7.57614,27.27412 -9.59645,30.43085 -2.0203,3.15673 -13.13198,15.15229 -14.14213,17.93021 -1.01015,2.77792 -3.6618,26.89531 -1.6415,35.60787 2.02031,8.71257 4.92449,27.14785 7.95495,32.82996 3.03046,5.68211 8.96511,18.94036 14.64721,26.64277 5.68211,7.70242 7.95496,12.2481 12.12184,14.89975 4.16687,2.65166 19.31916,6.43973 28.91561,9.72272 9.59645,3.283 16.16244,6.69226 21.08694,7.07107 4.92449,0.37881 16.03617,-0.75761 18.05647,-2.14657 2.02031,-1.38896 17.29887,-26.89531 18.18275,-30.55712 0.88388,-3.6618 4.92449,-14.14213 4.54569,-18.43528 -0.37881,-4.29315 0.12626,-43.94164 -0.63135,-46.84583 -0.75761,-2.90418 -2.39911,-16.66751 -6.43972,-25.38008 -4.04061,-8.71256 -5.17703,-17.93021 -8.83884,-22.98097 -3.6618,-5.05076 -13.63706,-21.46574 -16.79378,-22.47589 -3.15673,-1.01016 -11.61676,0.63134 -15.27856,-1.38896 -3.6618,-2.02031 -14.52094,-5.55584 -19.44544,-5.42957 -4.92449,0.12627 -25.50635,-2.02031 -32.70369,0.50507 z"
             id="path5183"
             style="fill:#ffffff;stroke:#000000;stroke-width:4;stroke-linecap:butt;stroke-linejoin:miter;stroke-miterlimit:4;stroke-opacity:1;stroke-dasharray:none" />
        <path
             d="m 431.2218,607.28061 c -12.11269,-0.24975 -7.867,1.49848 -12.73706,-3.37158 -4.87005,-4.87005 -8.61624,-6.61828 -9.7401,-9.86497 -1.12387,-3.24671 -2.87208,-8.3665 -5.36954,-11.23859 -2.49747,-2.87208 -19.23047,-38.21117 -22.60205,-50.82336 -3.37157,-12.61218 -6.86801,-26.72285 -7.36751,-30.96854 -0.49949,-4.24569 -2.62233,-29.47006 1.37361,-36.58783 3.99594,-7.11776 13.36142,-17.73198 16.73299,-19.9797 3.37158,-2.24771 24.84976,-14.48528 27.84672,-14.73503 2.99694,-0.24974 33.34112,-0.62436 38.71067,0.74924 5.36954,1.37361 15.10965,6.24366 16.48325,8.24163 1.3736,1.99797 5.36955,4.99492 6.86802,11.1137 1.49848,6.11879 4.49543,19.35534 4.99493,22.85179 0.49949,3.49645 4.87005,19.60509 5.24467,21.60305 0.37461,1.99798 1.49848,61.68733 -0.24975,65.18378 -1.74823,3.49645 -7.49238,16.35837 -10.61421,18.85585 -3.12184,2.49746 -47.07718,28.47106 -49.57464,28.97056 z"
             id="path5185"
             style="fill:#ffffff;stroke:#000000;stroke-width:4;stroke-linecap:butt;stroke-linejoin:miter;stroke-miterlimit:4;stroke-opacity:1;stroke-dasharray:none" />
    </g>
</svg>
